#!OML:ASF Y:\EmotionMaleHayes\Project 1\Capture day 1\Session 1\Male1.ASF
:FULLY-SPECIFIED
:DEGREES
1468
root -28.431 17.1303 0.549576 560.049 100.673 -163.125
lowerback 8.24406 1.8056 -6.89976
upperback 3.08104 1.9303 -0.673024
thorax -1.61357 0.976686 2.9882
lowerneck -21.314 3.91657 6.61043
upperneck 20.6732 3.85809 -1.99613
head 10.3097 2.08772 -1.21222
rclavicle 5.31749e-015 -1.14301e-014
rhumerus -39.7188 2.01693 -82.5696
rradius 42.39
rwrist -3.53942
rhand -13.7975 -30.2688
rfingers 7.12502
rthumb 12.3243 -59.8856
lclavicle 5.31749e-015 -1.14301e-014
lhumerus -30.2749 -29.5198 87.821
lradius 51.5001
lwrist 6.54787
lhand -25.1308 -23.7943
lfingers 7.12502
lthumb 1.38525 6.18096
rfemur 0.363773 -2.00099 9.53828
rtibia 11.5181
rfoot -18.9633 -1.84183
rtoes -0.848335
lfemur 7.03452 2.13261 -21.2612
ltibia 3.02614
lfoot -13.479 10.5813
ltoes -13.4056
1469
root -28.4471 17.1187 0.563055 560.291 100.213 -163.129
lowerback 7.76359 1.68342 -6.7571
upperback 3.1769 1.82398 -0.630238
thorax -1.23486 0.910382 2.9776
lowerneck -21.4761 3.88865 6.67861
upperneck 20.6063 3.81206 -2.12541
head 10.3171 2.053 -1.27478
rclavicle -1.21756e-015 -1.35174e-014
rhumerus -39.3335 2.72224 -83.0902
rradius 43.0877
rwrist -4.0598
rhand -14.0408 -31.3759
rfingers 7.12502
rthumb 12.0897 -61.0066
lclavicle -1.21756e-015 -1.35174e-014
lhumerus -30.5436 -29.6857 88.2978
lradius 51.1325
lwrist 6.45861
lhand -25.2878 -23.2546
lfingers 7.12502
lthumb 1.23364 6.72153
rfemur 0.248686 -2.33309 9.7328
rtibia 11.3766
rfoot -19.0442 -2.04417
rtoes -1.31073
lfemur 6.59441 1.97645 -21.0073
ltibia 3.21755
lfoot -13.6061 10.2433
ltoes -12.1247
1470
root -28.4415 17.1219 0.568469 557.511 100.076 -165.858
lowerback 8.07401 1.79293 -6.12271
upperback 2.89124 1.97266 -0.545239
thorax -1.70476 1.00252 2.68327
lowerneck -21.271 3.78812 6.65074
upperneck 20.8195 3.69761 -2.08426
head 10.3498 2.0103 -1.27522
rclavicle -1.69215e-014 -3.18055e-015
rhumerus -39.749 3.0899 -83.4007
rradius 43.538
rwrist -4.04758
rhand -13.8863 -30.8267
rfingers 7.12502
rthumb 12.2388 -60.4486
lclavicle -1.69215e-014 -3.18055e-015
lhumerus -31.6729 -29.8389 89.2512
lradius 50.715
lwrist 6.18079
lhand -25.3946 -22.6264
lfingers 7.12502
lthumb 1.13043 7.35031
rfemur 0.468819 -2.35363 10.3559
rtibia 11.1999
rfoot -18.8927 -2.04059
rtoes -1.95744
lfemur 6.85028 1.77072 -20.4505
ltibia 2.98077
lfoot -13.6497 10.4797
ltoes -12.351
1471
root -28.4506 17.1238 0.575913 557.921 99.7951 -165.565
lowerback 8.1124 1.76284 -6.01405
upperback 2.69851 1.92539 -0.570365
thorax -1.91837 0.986802 2.59686
lowerneck -21.1289 3.72956 6.64137
upperneck 20.941 3.62706 -2.04564
head 10.3635 1.98634 -1.27216
rclavicle 1.08338e-014 -7.55382e-015
rhumerus -39.8622 3.72761 -83.8235
rradius 44.0806
rwrist -4.23845
rhand -13.9469 -30.6668
rfingers 7.12502
rthumb 12.1803 -60.2922
lclavicle 1.08338e-014 -7.55382e-015
lhumerus -32.3705 -29.7765 89.9773
lradius 50.1231
lwrist 6.16009
lhand -25.2363 -22.8441
lfingers 7.12502
lthumb 1.28333 7.13181
rfemur 0.450593 -2.50551 10.4109
rtibia 11.1012
rfoot -18.7807 -2.26869
rtoes -2.8593
lfemur 6.6318 1.53124 -20.46
ltibia 3.02505
lfoot -13.5619 10.5799
ltoes -13.6873
1472
root -28.4518 17.1226 0.581654 559.725 99.7464 -163.777
lowerback 7.94923 1.74677 -6.17028
upperback 2.65537 1.8996 -0.688263
thorax -1.87094 0.973662 2.56833
lowerneck -21.0144 3.69089 6.59517
upperneck 20.9534 3.58898 -2.0042
head 10.3433 1.97208 -1.25695
rclavicle 9.91439e-015 3.8763e-015
rhumerus -39.7657 4.40651 -84.2363
rradius 44.5472
rwrist -4.42813
rhand -14.1001 -30.5147
rfingers 7.12502
rthumb 12.0326 -60.1488
lclavicle 9.91439e-015 3.8763e-015
lhumerus -32.9812 -29.7619 90.5901
lradius 49.7093
lwrist 6.54352
lhand -24.7931 -23.186
lfingers 7.12502
lthumb 1.71142 6.78689
rfemur 0.520953 -2.65683 10.0366
rtibia 11.0225
rfoot -18.7603 -2.38162
rtoes -4.65465
lfemur 6.55611 1.50096 -20.818
ltibia 3.01512
lfoot -13.5614 10.6482
ltoes -14.0672
1473
root -28.4479 17.1188 0.588334 561.13 99.7179 -162.316
lowerback 7.76635 1.73473 -6.3278
upperback 2.69606 1.8876 -0.750139
thorax -1.72841 0.963546 2.59908
lowerneck -21.0503 3.68717 6.4572
upperneck 20.967 3.59414 -1.87706
head 10.3495 1.97875 -1.18773
rclavicle 9.49197e-015 2.98177e-016
rhumerus -39.5462 4.9765 -84.5385
rradius 44.9533
rwrist -4.52413
rhand -14.0353 -30.37
rfingers 7.12502
rthumb 12.095 -60.0004
lclavicle 9.49197e-015 2.98177e-016
lhumerus -33.5878 -29.652 91.1862
lradius 49.3225
lwrist 6.76774
lhand -24.7922 -23.2367
lfingers 7.12502
lthumb 1.71223 6.73613
rfemur 0.692342 -2.90467 9.68856
rtibia 10.9425
rfoot -18.8208 -2.31431
rtoes -5.91499
lfemur 6.62637 1.61437 -21.0722
ltibia 2.94098
lfoot -13.4324 10.6312
ltoes -14.7016
1474
root -28.446 17.1166 0.595851 562.348 99.6281 -161.013
lowerback 7.64132 1.73835 -6.47298
upperback 2.77594 1.89679 -0.803287
thorax -1.57896 0.963287 2.62897
lowerneck -21.2318 3.67419 6.45932
upperneck 21.0341 3.54173 -1.79859
head 10.4037 1.96389 -1.1657
rclavicle 2.4202e-014 3.77691e-015
rhumerus -39.3672 5.5773 -84.8531
rradius 45.5597
rwrist -4.82947
rhand -13.9178 -30.2808
rfingers 7.12502
rthumb 12.2084 -59.9046
lclavicle 2.4202e-014 3.77691e-015
lhumerus -34.0868 -29.5161 91.7189
lradius 48.8388
lwrist 6.90813
lhand -25.1712 -23.0099
lfingers 7.12502
lthumb 1.34621 6.96556
rfemur 0.899809 -2.9965 9.4347
rtibia 10.7443
rfoot -18.7751 -2.35189
rtoes -6.12901
lfemur 6.80439 1.18657 -21.4123
ltibia 2.70728
lfoot -13.2484 11.1171
ltoes -15.5944
1475
root -28.4476 17.1105 0.602626 562.381 99.5585 -161.027
lowerback 7.48621 1.76615 -6.38542
upperback 2.79094 1.95225 -0.844809
thorax -1.47875 0.98817 2.53633
lowerneck -21.3842 3.64949 6.53267
upperneck 21.0992 3.45909 -1.74862
head 10.4526 1.93803 -1.1705
rclavicle 3.14328e-014 -2.98177e-016
rhumerus -39.2193 6.19108 -85.2402
rradius 46.177
rwrist -5.08171
rhand -13.9711 -30.4432
rfingers 7.12502
rthumb 12.157 -60.07
lclavicle 3.14328e-014 -2.98177e-016
lhumerus -34.5463 -29.333 92.155
lradius 48.4134
lwrist 7.23637
lhand -25.1172 -22.8355
lfingers 7.12502
lthumb 1.39838 7.13969
rfemur 0.871991 -2.80931 9.49013
rtibia 10.6038
rfoot -18.6544 -2.41378
rtoes -5.6023
lfemur 6.77548 0.996008 -21.4108
ltibia 2.64713
lfoot -13.1802 11.3555
ltoes -16.2273
1476
root -28.4506 17.1099 0.609896 561.769 99.4415 -161.505
lowerback 7.66109 1.80552 -6.17948
upperback 2.7564 2.00362 -0.860352
thorax -1.60978 1.01855 2.39475
lowerneck -21.4122 3.57461 6.40656
upperneck 21.2171 3.34752 -1.54939
head 10.4897 1.90392 -1.09501
rclavicle 2.60656e-014 -1.21259e-014
rhumerus -39.1614 6.68384 -85.6047
rradius 46.6726
rwrist -5.12005
rhand -14.0266 -30.8674
rfingers 7.12502
rthumb 12.1034 -60.4973
lclavicle 2.60656e-014 -1.21259e-014
lhumerus -35.1797 -29.0594 92.6314
lradius 48.0075
lwrist 7.4316
lhand -24.7257 -23.0458
lfingers 7.12502
lthumb 1.77648 6.92653
rfemur 1.03429 -2.63081 9.65776
rtibia 10.5893
rfoot -18.6506 -2.35934
rtoes -5.17947
lfemur 6.82699 1.47838 -21.0636
ltibia 2.81844
lfoot -13.1238 10.81
ltoes -16.9151
1477
root -28.4506 17.1076 0.61797 561.945 99.3836 -161.184
lowerback 7.7711 1.84347 -6.13329
upperback 2.72326 2.04703 -0.88399
thorax -1.70672 1.04354 2.33642
lowerneck -21.2927 3.45816 6.26821
upperneck 21.1725 3.22315 -1.48148
head 10.4418 1.84482 -1.06879
rclavicle 1.963e-014 -1.49089e-014
rhumerus -39.1562 7.17767 -85.843
rradius 47.1825
rwrist -5.23551
rhand -13.8775 -30.8282
rfingers 7.12502
rthumb 12.2472 -60.4496
lclavicle 1.963e-014 -1.49089e-014
lhumerus -35.8876 -28.7187 93.198
lradius 47.525
lwrist 7.3534
lhand -24.9958 -23.0923
lfingers 7.12502
lthumb 1.51562 6.88202
rfemur 1.23227 -2.63015 9.62052
rtibia 10.5931
rfoot -18.7339 -2.30787
rtoes -5.50922
lfemur 6.97011 1.65874 -21.0104
ltibia 2.82473
lfoot -13.1999 10.5755
ltoes -15.9402
1478
root -28.4492 17.1096 0.629488 562.386 99.3065 -160.626
lowerback 7.75711 1.84741 -6.19982
upperback 2.74279 2.04997 -0.891606
thorax -1.68061 1.0442 2.36616
lowerneck -21.2117 3.41271 6.36091
upperneck 21.0552 3.17212 -1.63683
head 10.3863 1.80835 -1.14862
rclavicle 2.45499e-014 -2.08724e-014
rhumerus -39.0376 7.69843 -86.0085
rradius 47.6774
rwrist -5.37888
rhand -13.6549 -30.6818
rfingers 7.12502
rthumb 12.4619 -60.2903
lclavicle 2.45499e-014 -2.08724e-014
lhumerus -36.3728 -28.2772 93.6839
lradius 46.8496
lwrist 7.31309
lhand -25.4881 -22.9379
lfingers 7.12502
lthumb 1.04011 7.03926
rfemur 1.49845 -2.60375 9.59147
rtibia 10.4207
rfoot -18.8067 -2.52513
rtoes -5.93348
lfemur 7.15932 1.47232 -21.0793
ltibia 2.69811
lfoot -13.3993 10.6038
ltoes -13.925
1479
root -28.4467 17.112 0.643561 561.281 99.1067 -161.731
lowerback 7.60861 1.84581 -6.00024
upperback 2.7419 2.07309 -0.827872
thorax -1.59763 1.05299 2.32288
lowerneck -21.242 3.41091 6.49002
upperneck 21.1562 3.14772 -1.71559
head 10.4315 1.7999 -1.20116
rclavicle -1.2424e-016 -1.19271e-015
rhumerus -38.918 8.07733 -86.1465
rradius 48.1134
rwrist -5.43117
rhand -13.4417 -30.5365
rfingers 7.12502
rthumb 12.6674 -60.1324
lclavicle -1.2424e-016 -1.19271e-015
lhumerus -36.696 -27.6166 93.9814
lradius 45.8858
lwrist 7.33222
lhand -24.908 -23.5372
lfingers 7.12502
lthumb 1.6004 6.43657
rfemur 1.70372 -2.51129 9.97746
rtibia 10.1692
rfoot -18.8028 -2.89155
rtoes -6.58215
lfemur 7.22648 1.53473 -20.6823
ltibia 2.65053
lfoot -13.4409 10.4019
ltoes -14.3043
1480
root -28.4479 17.1128 0.654445 559.674 98.9169 -163.319
lowerback 7.64107 1.85717 -5.69769
upperback 2.65675 2.10231 -0.753664
thorax -1.69996 1.07058 2.22528
lowerneck -21.1202 3.36156 6.49465
upperneck 21.2359 3.09132 -1.71555
head 10.4356 1.77778 -1.21168
rclavicle -2.51214e-014 -5.76476e-015
rhumerus -39.0059 8.41607 -86.2957
rradius 48.6473
rwrist -5.57455
rhand -13.1789 -30.3252
rfingers 7.12502
rthumb 12.9208 -59.9052
lclavicle -2.51214e-014 -5.76476e-015
lhumerus -37.2005 -26.7988 94.275
lradius 45.3954
lwrist 7.77801
lhand -24.0417 -23.4061
lfingers 7.12502
lthumb 2.4371 6.55976
rfemur 1.83878 -2.43647 10.4177
rtibia 10.0282
rfoot -18.7446 -3.08645
rtoes -6.60619
lfemur 7.29449 1.64333 -20.2165
ltibia 2.61401
lfoot -13.3564 10.3156
ltoes -15.5526
1481
root -28.4538 17.1138 0.662818 559.812 98.733 -163.125
lowerback 7.73388 1.82661 -5.65149
upperback 2.58723 2.05463 -0.753744
thorax -1.81832 1.05049 2.19995
lowerneck -20.8985 3.28991 6.44733
upperneck 21.1565 3.0067 -1.64374
head 10.3599 1.74508 -1.19344
rclavicle -5.64051e-015 9.93923e-016
rhumerus -39.0774 8.84103 -86.4724
rradius 49.2051
rwrist -5.83954
rhand -13.4841 -29.5078
rfingers 7.12502
rthumb 12.6265 -59.1062
lclavicle -5.64051e-015 9.93923e-016
lhumerus -37.7814 -26.2201 94.6102
lradius 45.0436
lwrist 8.1664
lhand -24.6565 -23.3054
lfingers 7.12502
lthumb 1.8433 6.66641
rfemur 1.97447 -2.34134 10.5137
rtibia 9.89068
rfoot -18.7228 -3.19951
rtoes -5.23205
lfemur 7.43005 1.25323 -20.2301
ltibia 2.38963
lfoot -13.2467 10.6161
ltoes -15.7556
